<?xml version="1.0" encoding="utf-8"?>
<svg version="1.1" xmlns:xlink="http://www.w3.org/1999/xlink" width="169px" height="175px" xmlns="http://www.w3.org/2000/svg">
  <g transform="matrix(1 0 0 1 -925 -424 )">
    <path d="M 51.68080357142858 6.933593749999997  C 62.117559523809526 2.3111979166666656  73.05729166666667 0  84.5 0  C 95.94270833333334 0  106.8824404761905 2.3111979166666656  117.31919642857143 6.933593749999997  C 127.7559523809524 11.555989583333329  136.74665178571428 17.7734375  144.29129464285714 25.585937499999993  C 151.83593750000003 33.3984375  157.84021577380955 42.708333333333314  162.30412946428572 53.51562499999999  C 166.76804315476193 64.32291666666666  169 75.65104166666666  169 87.5  C 169 99.28385416666667  166.78376116071428 110.57942708333333  162.35128348214286 121.38671874999999  C 157.91880580357144 132.19401041666669  151.93024553571428 141.50390625  144.38560267857144 149.31640625  C 136.84095982142856 157.12890625  127.85026041666669 163.36263020833331  117.41350446428572 168.017578125  C 106.97674851190477 172.67252604166666  96.00558035714285 175  84.5 175  C 72.99441964285714 175  62.02325148809525 172.68880208333334  51.586495535714285 168.06640625  C 41.149739583333336 163.44401041666666  32.17475818452381 157.21028645833331  24.66155133928571 149.365234375  C 17.148344494047617 141.52018229166666  11.159784226190476 132.21028645833334  6.695870535714286 121.435546875  C 2.231956845238095 110.66080729166664  0 99.34895833333331  0 87.5  C 0 75.65104166666666  2.231956845238095 64.32291666666666  6.695870535714286 53.51562499999999  C 11.159784226190476 42.708333333333314  17.1640625 33.3984375  24.708705357142858 25.585937499999993  C 32.253348214285715 17.7734375  41.24404761904762 11.555989583333329  51.68080357142858 6.933593749999997  Z M 114.01841517857143 100  C 129.10770089285714 100  138.72712053571428 110.64453125  142.87667410714286 131.93359375  C 152.24460565476193 118.58723958333334  156.92857142857144 103.77604166666666  156.92857142857144 87.5  C 156.92857142857144 77.34375  155.01097470238096 67.64322916666666  151.17578125 58.39843749999999  C 147.34058779761907 49.15364583333333  142.18508184523813 41.17838541666665  135.70926339285714 34.47265624999999  C 129.2334449404762 27.766927083333336  121.53162202380953 22.428385416666657  112.60379464285715 18.45703125  C 103.67596726190477 14.485677083333323  94.30803571428572 12.499999999999995  84.5 12.499999999999995  C 74.69196428571428 12.499999999999995  65.32403273809524 14.485677083333323  56.39620535714286 18.45703125  C 47.46837797619048 22.428385416666657  39.76655505952382 27.766927083333336  33.29073660714286 34.47265624999999  C 26.81491815476191 41.17838541666665  21.659412202380953 49.15364583333333  17.82421875 58.39843749999999  C 13.98902529761905 67.64322916666666  12.071428571428571 77.34375  12.071428571428571 87.5  C 12.071428571428571 103.77604166666666  16.7553943452381 118.58723958333334  26.123325892857142 131.93359375  C 30.27287946428571 110.64453125  39.89229910714286 100  54.98158482142858 100  C 63.2178199404762 108.33333333333334  73.05729166666667 112.49999999999999  84.5 112.49999999999999  C 95.94270833333334 112.49999999999999  105.78218005952381 108.33333333333334  114.01841517857143 100  Z M 110.10463169642857 95.263671875  C 117.177734375 87.939453125  120.71428571428572 79.1015625  120.71428571428572 68.75000000000001  C 120.71428571428572 58.39843749999999  117.177734375 49.560546875  110.10463169642857 42.23632812499999  C 103.03152901785715 34.91210937500001  94.49665178571428 31.250000000000007  84.5 31.250000000000007  C 74.50334821428572 31.250000000000007  65.96847098214286 34.91210937500001  58.89536830357142 42.23632812499999  C 51.822265625 49.560546875  48.285714285714285 58.39843749999999  48.285714285714285 68.75000000000001  C 48.285714285714285 79.1015625  51.822265625 87.939453125  58.89536830357142 95.263671875  C 65.96847098214286 102.58789062499999  74.50334821428572 106.25000000000001  84.5 106.25000000000001  C 94.49665178571428 106.25000000000001  103.03152901785715 102.58789062499999  110.10463169642857 95.263671875  Z " fill-rule="nonzero" fill="#f59a23" stroke="none" transform="matrix(1 0 0 1 925 424 )" />
  </g>
</svg>