<?xml version="1.0" encoding="utf-8"?>
<svg version="1.1" xmlns:xlink="http://www.w3.org/1999/xlink" width="32px" height="39px" xmlns="http://www.w3.org/2000/svg">
  <g transform="matrix(1 0 0 1 -1518 -469 )">
    <path d="M 24.083333333333332 1.4799107142857155  L 30.583333333333332 8.270089285714285  C 30.972222222222225 8.676339285714283  31.305555555555557 9.227678571428573  31.583333333333332 9.924107142857142  C 31.86111111111111 10.620535714285715  32 11.258928571428571  32 11.839285714285715  L 32 36.910714285714285  C 32 37.49107142857143  31.805555555555554 37.984375  31.416666666666668 38.390625  C 31.027777777777782 38.796875  30.555555555555557 39  30 39  L 2 39  C 1.4444444444444446 39  0.9722222222222223 38.796875  0.5833333333333334 38.390625  C 0.19444444444444442 37.984375  0 37.49107142857143  0 36.910714285714285  L 0 2.0892857142857153  C 0 1.5089285714285703  0.19444444444444442 1.0156249999999987  0.5833333333333334 0.609375  C 0.9722222222222223 0.20312500000000144  1.4444444444444446 0  2 0  L 20.666666666666668 0  C 21.222222222222225 0  21.833333333333332 0.14508928571428736  22.5 0.43526785714285776  C 23.166666666666668 0.7254464285714282  23.694444444444446 1.0736607142857126  24.083333333333332 1.4799107142857155  Z M 22.1875 3.4386160714285734  C 22.020833333333332 3.2645089285714266  21.736111111111114 3.10491071428571  21.333333333333332 2.9598214285714266  L 21.333333333333332 11.142857142857142  L 29.166666666666668 11.142857142857142  C 29.027777777777782 10.72209821428571  28.875 10.424665178571427  28.708333333333332 10.250558035714285  L 22.1875 3.4386160714285734  Z M 3 36  L 29 36  L 29 13.928571428571427  L 20.666666666666668 13.928571428571427  C 20.11111111111111 13.928571428571427  19.63888888888889 13.725446428571425  19.25 13.319196428571427  C 18.86111111111111 12.912946428571429  18.666666666666668 12.419642857142852  18.666666666666668 11.839285714285715  L 18.666666666666668 3  L 3 3  L 3 36  Z M 10.354166666666666 31.121651785714285  L 8.9375 31.121651785714285  L 8.9375 33.42857142857143  L 14.791666666666666 33.42857142857143  L 14.791666666666666 31.121651785714285  L 13.229166666666666 31.121651785714285  L 15.375 27.617745535714285  C 15.444444444444445 27.51618303571428  15.513888888888891 27.396484374999996  15.583333333333334 27.25864955357143  C 15.652777777777779 27.120814732142858  15.704861111111112 27.022879464285708  15.739583333333334 26.96484375  C 15.774305555555557 26.90680803571428  15.798611111111112 26.87779017857143  15.8125 26.87779017857143  L 15.854166666666666 26.87779017857143  C 15.868055555555557 26.935825892857142  15.902777777777779 27.008370535714285  15.958333333333334 27.095424107142858  C 15.986111111111109 27.153459821428566  16.01736111111111 27.207868303571423  16.052083333333332 27.25864955357143  C 16.086805555555557 27.309430803571427  16.128472222222225 27.367466517857142  16.177083333333332 27.43275669642857  C 16.225694444444446 27.498046875  16.270833333333336 27.55970982142857  16.3125 27.617745535714285  L 18.541666666666668 31.121651785714285  L 16.958333333333332 31.121651785714285  L 16.958333333333332 33.42857142857143  L 23.020833333333332 33.42857142857143  L 23.020833333333332 31.121651785714285  L 21.604166666666668 31.121651785714285  L 17.604166666666668 25.180245535714285  L 21.666666666666668 19.04296875  L 23.0625 19.04296875  L 23.0625 16.714285714285715  L 17.25 16.714285714285715  L 17.25 19.04296875  L 18.791666666666668 19.04296875  L 16.645833333333332 22.503348214285715  C 16.590277777777782 22.604910714285715  16.520833333333336 22.724609375  16.4375 22.86244419642857  C 16.354166666666668 23.000279017857142  16.291666666666668 23.09821428571428  16.25 23.15625  L 16.208333333333332 23.22154017857143  L 16.166666666666668 23.22154017857143  C 16.15277777777778 23.16350446428571  16.118055555555557 23.09095982142857  16.0625 23.00390625  C 15.979166666666666 22.84430803571429  15.861111111111112 22.677455357142858  15.708333333333334 22.503348214285715  L 13.5 19.04296875  L 15.083333333333334 19.04296875  L 15.083333333333334 16.714285714285715  L 9.041666666666666 16.714285714285715  L 9.041666666666666 19.04296875  L 10.458333333333334 19.04296875  L 14.395833333333334 24.962611607142858  L 10.354166666666666 31.121651785714285  Z " fill-rule="nonzero" fill="#000000" stroke="none" transform="matrix(1 0 0 1 1518 469 )" />
  </g>
</svg>