<?xml version="1.0" encoding="utf-8"?>
<svg version="1.1" xmlns:xlink="http://www.w3.org/1999/xlink" width="32px" height="39px" xmlns="http://www.w3.org/2000/svg">
  <g transform="matrix(1 0 0 1 -1518 -524 )">
    <path d="M 24.083333333333332 1.4799107142857155  L 30.583333333333332 8.270089285714285  C 30.972222222222225 8.676339285714283  31.305555555555557 9.227678571428573  31.583333333333332 9.924107142857142  C 31.86111111111111 10.620535714285715  32 11.258928571428571  32 11.839285714285715  L 32 36.910714285714285  C 32 37.49107142857143  31.805555555555554 37.984375  31.416666666666668 38.390625  C 31.027777777777782 38.796875  30.555555555555557 39  30 39  L 2 39  C 1.4444444444444446 39  0.9722222222222223 38.796875  0.5833333333333334 38.390625  C 0.19444444444444442 37.984375  0 37.49107142857143  0 36.910714285714285  L 0 2.0892857142857153  C 0 1.5089285714285703  0.19444444444444442 1.0156249999999987  0.5833333333333334 0.609375  C 0.9722222222222223 0.20312500000000144  1.4444444444444446 0  2 0  L 20.666666666666668 0  C 21.222222222222225 0  21.833333333333332 0.14508928571428736  22.5 0.43526785714285776  C 23.166666666666668 0.7254464285714282  23.694444444444446 1.0736607142857126  24.083333333333332 1.4799107142857155  Z M 22.1875 3.4386160714285734  C 22.020833333333332 3.2645089285714266  21.736111111111114 3.10491071428571  21.333333333333332 2.9598214285714266  L 21.333333333333332 11.142857142857142  L 29.166666666666668 11.142857142857142  C 29.027777777777782 10.72209821428571  28.875 10.424665178571427  28.708333333333332 10.250558035714285  L 22.1875 3.4386160714285734  Z M 3 36  L 29 36  L 29 13.928571428571427  L 20.666666666666668 13.928571428571427  C 20.11111111111111 13.928571428571427  19.63888888888889 13.725446428571425  19.25 13.319196428571427  C 18.86111111111111 12.912946428571429  18.666666666666668 12.419642857142852  18.666666666666668 11.839285714285715  L 18.666666666666668 3  L 3 3  L 3 36  Z M 11.104166666666666 16.714285714285715  L 4.854166666666667 16.714285714285715  L 4.854166666666667 19.04296875  L 6.3125 19.04296875  L 9.729166666666666 33.42857142857143  L 13.041666666666666 33.42857142857143  L 15.708333333333334 22.873325892857142  C 15.805555555555557 22.583147321428573  15.875 22.24944196428571  15.916666666666666 21.87220982142857  C 15.944444444444445 21.64006696428571  15.958333333333334 21.46595982142857  15.958333333333334 21.349888392857142  L 16.041666666666668 21.349888392857142  L 16.104166666666668 21.87220982142857  C 16.118055555555557 21.915736607142858  16.142361111111114 22.060825892857142  16.177083333333332 22.30747767857143  C 16.211805555555557 22.55412946428571  16.25 22.742745535714285  16.291666666666668 22.873325892857142  L 18.958333333333332 33.42857142857143  L 22.270833333333332 33.42857142857143  L 25.6875 19.04296875  L 27.145833333333332 19.04296875  L 27.145833333333332 16.714285714285715  L 20.895833333333332 16.714285714285715  L 20.895833333333332 19.04296875  L 22.770833333333332 19.04296875  L 20.708333333333332 28.57533482142857  C 20.63888888888889 28.865513392857142  20.59027777777778 29.199218750000004  20.5625 29.576450892857142  L 20.520833333333332 30.033482142857142  L 20.4375 30.033482142857142  C 20.437500000000004 29.989955357142858  20.434027777777782 29.94280133928571  20.427083333333332 29.892020089285715  C 20.42013888888889 29.84123883928572  20.409722222222225 29.783203125  20.395833333333332 29.71791294642857  C 20.381944444444446 29.652622767857142  20.375000000000004 29.605468749999996  20.375 29.576450892857142  C 20.36111111111111 29.503906250000004  20.333333333333332 29.351562500000004  20.291666666666668 29.119419642857142  C 20.25 28.88727678571428  20.21527777777778 28.70591517857143  20.1875 28.57533482142857  L 17.1875 16.714285714285715  L 14.8125 16.714285714285715  L 11.8125 28.57533482142857  C 11.784722222222223 28.70591517857143  11.753472222222223 28.88364955357143  11.71875 29.10853794642857  C 11.684027777777779 29.33342633928571  11.659722222222223 29.48939732142857  11.645833333333334 29.576450892857142  L 11.5625 30.033482142857142  L 11.479166666666666 30.033482142857142  L 11.4375 29.576450892857142  C 11.409722222222223 29.199218750000004  11.361111111111112 28.865513392857142  11.291666666666666 28.57533482142857  L 9.229166666666666 19.04296875  L 11.104166666666666 19.04296875  L 11.104166666666666 16.714285714285715  Z " fill-rule="nonzero" fill="#000000" stroke="none" transform="matrix(1 0 0 1 1518 524 )" />
  </g>
</svg>